<?xml version="1.0" encoding="UTF-8"?>
<svg xmlns="http://www.w3.org/2000/svg" xmlns:xlink="http://www.w3.org/1999/xlink" width="0" height="0">
<symbol id="like" width="30" height="30" viewBox="0 0 30 30" fill="none">
<g clip-path="url(#clip0_1_1551)">
<path fill-rule="evenodd" clip-rule="evenodd" d="M0 15C0 6.71573 6.71573 0 15 0C23.2843 0 30 6.71573 30 15C30 23.2843 23.2843 30 15 30C6.71573 30 0 23.2843 0 15ZM15 2C7.8203 2 2 7.8203 2 15C2 22.1797 7.8203 28 15 28C22.1797 28 28 22.1797 28 15C28 7.8203 22.1797 2 15 2ZM10 12H8V10H10V12ZM22 12H20V10H22V12ZM9.2 16.6L9.8 17.4C12.4 20.8667 17.6 20.8667 20.2 17.4L20.8 16.6L22.4 17.8L21.8 18.6C18.4 23.1333 11.6 23.1333 8.2 18.6L7.6 17.8L9.2 16.6Z"/>
</g>
<defs>
<clipPath>
<rect width="30" height="30"/>
</clipPath>
</defs>
</symbol>

<symbol id="search" width="20" height="20" viewBox="0 0 20 20" fill="none">
<g clip-path="url(#clip0_1_1323)">
<path d="M19.3613 18.2168L14.6012 13.2662C15.8251 11.8113 16.4957 9.98069 16.4957 8.07499C16.4957 3.62251 12.8732 0 8.4207 0C3.96821 0 0.345703 3.62251 0.345703 8.07499C0.345703 12.5275 3.96821 16.15 8.4207 16.15C10.0922 16.15 11.6851 15.6458 13.047 14.6888L17.8432 19.677C18.0436 19.8852 18.3133 20 18.6022 20C18.8757 20 19.1352 19.8957 19.3321 19.7061C19.7506 19.3034 19.764 18.6357 19.3613 18.2168ZM8.4207 2.10652C11.7118 2.10652 14.3892 4.78391 14.3892 8.07499C14.3892 11.3661 11.7118 14.0435 8.4207 14.0435C5.12961 14.0435 2.45222 11.3661 2.45222 8.07499C2.45222 4.78391 5.12961 2.10652 8.4207 2.10652Z"/>
</g>
<defs>
<clipPath>
<rect width="20" height="20"/>
</clipPath>
</defs>
</symbol>

</svg>